<svg xmlns="http://www.w3.org/2000/svg" viewBox="0 0 24 24" fill="none" stroke="currentColor" stroke-width="1.5" stroke-linecap="round" stroke-linejoin="round">
  <!-- Brain / neural network icon -->
  <!-- Central node -->
  <circle cx="12" cy="12" r="2" />
  <!-- Top layer nodes -->
  <circle cx="7" cy="4" r="1.5" />
  <circle cx="17" cy="4" r="1.5" />
  <!-- Middle layer nodes -->
  <circle cx="4" cy="12" r="1.5" />
  <circle cx="20" cy="12" r="1.5" />
  <!-- Bottom layer nodes -->
  <circle cx="7" cy="20" r="1.5" />
  <circle cx="17" cy="20" r="1.5" />
  <!-- Connections from center to outer nodes -->
  <line x1="10.3" y1="10.8" x2="8.2" y2="5.2" />
  <line x1="13.7" y1="10.8" x2="15.8" y2="5.2" />
  <line x1="10" y1="12" x2="5.5" y2="12" />
  <line x1="14" y1="12" x2="18.5" y2="12" />
  <line x1="10.3" y1="13.2" x2="8.2" y2="18.8" />
  <line x1="13.7" y1="13.2" x2="15.8" y2="18.8" />
  <!-- Cross connections -->
  <line x1="8.3" y1="4.8" x2="15.7" y2="4.8" />
  <line x1="5.2" y1="10.8" x2="7.5" y2="5.3" />
  <line x1="18.8" y1="10.8" x2="16.5" y2="5.3" />
  <line x1="5.2" y1="13.2" x2="7.5" y2="18.7" />
  <line x1="18.8" y1="13.2" x2="16.5" y2="18.7" />
  <line x1="8.3" y1="19.2" x2="15.7" y2="19.2" />
</svg>
